<?xml version="1.0" encoding="utf-8"?>
<!-- Generator: Adobe Illustrator 15.1.0, SVG Export Plug-In . SVG Version: 6.00 Build 0)  -->
<!DOCTYPE svg PUBLIC "-//W3C//DTD SVG 1.1//EN" "http://www.w3.org/Graphics/SVG/1.1/DTD/svg11.dtd">
<svg version="1.1" id="Layer_2" xmlns="http://www.w3.org/2000/svg" xmlns:xlink="http://www.w3.org/1999/xlink" x="0px" y="0px"
	 width="154px" height="50px" viewBox="0 0 154 50" enable-background="new 0 0 154 50" xml:space="preserve">
<path fill="#00A170" d="M7.92,30.97L0,6.71h3.38l3.78,11.95c1.05,3.28,1.95,6.23,2.59,9.07h0.07c0.68-2.81,1.69-5.87,2.77-9.03
	l4.1-11.99h3.35l-8.67,24.26H7.92z"/>
<path fill="#00A170" d="M22.67,7.03c1.58-0.32,3.85-0.51,6.01-0.51c3.35,0,5.51,0.61,7.02,1.98c1.22,1.08,1.91,2.74,1.91,4.61
	c0,3.2-2.02,5.33-4.57,6.19v0.11c1.87,0.65,2.99,2.38,3.56,4.9c0.79,3.38,1.37,5.72,1.87,6.66h-3.24c-0.39-0.72-0.94-2.77-1.62-5.79
	c-0.72-3.35-2.01-4.61-4.86-4.72h-2.95v10.51h-3.13V7.03z M25.81,18.08h3.2c3.35,0,5.47-1.84,5.47-4.61c0-3.13-2.27-4.5-5.58-4.54
	c-1.51,0-2.59,0.14-3.09,0.29V18.08z"/>
<path fill="#00A170" d="M42.04,7.03c1.37-0.29,3.53-0.5,5.72-0.5c3.13,0,5.15,0.54,6.66,1.76c1.26,0.94,2.01,2.38,2.01,4.28
	c0,2.34-1.55,4.39-4.1,5.33v0.07c2.3,0.58,5,2.48,5,6.08c0,2.09-0.83,3.67-2.05,4.86c-1.69,1.55-4.43,2.27-8.39,2.27
	c-2.16,0-3.82-0.15-4.86-0.29V7.03z M45.17,16.96h2.85c3.31,0,5.26-1.73,5.26-4.07c0-2.84-2.16-3.96-5.33-3.96
	c-1.44,0-2.27,0.11-2.77,0.21V16.96z M45.17,28.59c0.61,0.11,1.51,0.14,2.63,0.14c3.24,0,6.23-1.19,6.23-4.71
	c0-3.31-2.84-4.68-6.26-4.68h-2.59V28.59z"/>
<path fill="#00A170" d="M82.28,18.58c0,8.35-5.08,12.78-11.27,12.78c-6.41,0-10.91-4.97-10.91-12.31c0-7.7,4.79-12.74,11.27-12.74
	C77.99,6.31,82.28,11.39,82.28,18.58 M63.45,18.98c0,5.18,2.81,9.83,7.74,9.83c4.97,0,7.78-4.57,7.78-10.08
	c0-4.82-2.52-9.86-7.74-9.86C66.04,8.87,63.45,13.65,63.45,18.98"/>
<path fill="#00A170" d="M85.26,5.57c1.54,0,2.74,1.2,2.74,2.69c0,1.53-1.2,2.71-2.75,2.71c-1.54,0-2.77-1.18-2.77-2.71
	c0-1.49,1.23-2.69,2.77-2.69H85.26z M85.23,6.11c-1.18,0-2.07,0.97-2.07,2.15c0,1.2,0.88,2.15,2.1,2.15
	c1.18,0.01,2.05-0.95,2.05-2.15c0-1.18-0.87-2.15-2.07-2.15H85.23z M84.82,9.65H84.2V6.98c0.25-0.05,0.59-0.1,1.03-0.1
	c0.51,0,0.74,0.08,0.94,0.21c0.15,0.12,0.26,0.33,0.26,0.58c0,0.31-0.23,0.54-0.56,0.64v0.03c0.26,0.08,0.41,0.3,0.49,0.66
	c0.08,0.41,0.13,0.57,0.2,0.66h-0.67c-0.08-0.1-0.13-0.33-0.21-0.64c-0.04-0.3-0.21-0.43-0.56-0.43h-0.3V9.65z M84.83,8.14h0.29
	c0.34,0,0.63-0.11,0.63-0.39c0-0.24-0.18-0.41-0.57-0.41c-0.17,0-0.28,0.02-0.35,0.03V8.14z"/>
<path d="M1.98,38.36c0.47-0.1,1.04-0.16,1.73-0.16c0.96,0,1.69,0.24,2.13,0.68c0.38,0.37,0.62,0.9,0.62,1.58
	c0,0.7-0.2,1.21-0.56,1.61c-0.52,0.6-1.39,0.91-2.38,0.91c-0.36,0-0.7-0.01-0.98-0.1v3.45H1.98V38.36z M2.55,42.39
	c0.29,0.08,0.63,0.12,1.03,0.12c1.44,0,2.31-0.71,2.31-1.99c0-1.27-0.92-1.83-2.21-1.83c-0.53,0-0.92,0.05-1.14,0.1V42.39z"/>
<path d="M11.21,44.98c0,0.46,0.02,0.92,0.08,1.37h-0.51l-0.08-0.83h-0.04c-0.28,0.44-0.91,0.96-1.83,0.96
	c-1.15,0-1.69-0.82-1.69-1.58c0-1.33,1.18-2.13,3.51-2.11v-0.14c0-0.58-0.11-1.71-1.47-1.7c-0.5,0-1.03,0.13-1.44,0.43l-0.18-0.42
	c0.52-0.35,1.16-0.49,1.68-0.49c1.67,0,1.98,1.25,1.98,2.28V44.98z M10.65,43.27c-1.26-0.04-2.91,0.16-2.91,1.54
	c0,0.83,0.55,1.2,1.15,1.2c0.96,0,1.5-0.59,1.7-1.15c0.04-0.12,0.06-0.24,0.06-0.35V43.27z"/>
<path d="M13.08,42.32c0-0.58-0.02-1.18-0.05-1.73h0.53l0.02,1.16h0.02c0.25-0.72,0.85-1.3,1.64-1.3c0.07,0,0.16,0.01,0.23,0.02v0.55
	c-0.08-0.02-0.17-0.02-0.28-0.02c-0.79,0-1.35,0.68-1.51,1.61c-0.02,0.17-0.05,0.36-0.05,0.55v3.18h-0.56V42.32z"/>
<path d="M17.73,39.32v1.27h1.64v0.46h-1.64v3.74c0,0.73,0.23,1.2,0.84,1.2c0.3,0,0.52-0.05,0.66-0.1l0.07,0.44
	c-0.19,0.08-0.46,0.14-0.8,0.14c-0.42,0-0.77-0.14-0.98-0.42c-0.26-0.3-0.36-0.78-0.36-1.37v-3.65h-0.97v-0.46h0.97v-1.06
	L17.73,39.32z"/>
<path d="M28.19,43.41c0,2.16-1.47,3.07-2.76,3.07c-1.49,0-2.64-1.16-2.64-2.96c0-1.98,1.3-3.06,2.72-3.06
	C27.11,40.46,28.19,41.65,28.19,43.41 M23.37,43.48c0,1.44,0.92,2.52,2.1,2.52c1.2,0,2.15-1.08,2.15-2.55c0-1.05-0.6-2.52-2.11-2.52
	C24.04,40.93,23.37,42.25,23.37,43.48"/>
<path d="M29.69,46.35v-5.3h-0.83v-0.46h0.83v-0.31c0-0.89,0.17-1.61,0.64-2.07c0.35-0.35,0.83-0.5,1.27-0.5
	c0.37,0,0.7,0.1,0.86,0.19l-0.18,0.46c-0.16-0.08-0.38-0.17-0.73-0.17c-1.07,0-1.29,0.98-1.29,2.09v0.32h1.55v0.46h-1.55v5.3H29.69z
	"/>
<path d="M36.22,39.32v1.27h1.64v0.46h-1.64v3.74c0,0.73,0.23,1.2,0.84,1.2c0.3,0,0.52-0.05,0.66-0.1l0.07,0.44
	c-0.19,0.08-0.46,0.14-0.8,0.14c-0.42,0-0.77-0.14-0.98-0.42c-0.26-0.3-0.36-0.78-0.36-1.37v-3.65h-0.97v-0.46h0.97v-1.06
	L36.22,39.32z"/>
<path d="M39.13,37.83h0.56v3.79h0.02c0.17-0.32,0.44-0.64,0.79-0.84c0.32-0.2,0.72-0.32,1.16-0.32c0.54,0,1.99,0.28,1.99,2.41v3.48
	H43.1v-3.41c0-1.04-0.41-1.99-1.58-1.99c-0.82,0-1.5,0.59-1.74,1.31c-0.06,0.17-0.08,0.34-0.08,0.56v3.53h-0.56V37.83z"/>
<path d="M45.65,43.41c0,1.85,1.01,2.57,2.19,2.57c0.84,0,1.27-0.17,1.6-0.32l0.14,0.46c-0.22,0.12-0.8,0.37-1.81,0.37
	c-1.66,0-2.69-1.21-2.69-2.9c0-1.92,1.1-3.12,2.59-3.12c1.88,0,2.24,1.78,2.24,2.6c0,0.16,0,0.25-0.02,0.35H45.65z M49.32,42.96
	c0.01-0.8-0.32-2.03-1.71-2.03c-1.27,0-1.82,1.14-1.92,2.03H49.32z"/>
<polygon points="55.37,38.27 55.37,41.5 58.79,41.5 58.79,38.27 60.26,38.27 60.26,46.35 58.79,46.35 58.79,42.79 55.37,42.79 
	55.37,46.35 53.89,46.35 53.89,38.27 "/>
<path d="M67.45,43.38c0,2.15-1.51,3.11-3,3.11c-1.65,0-2.93-1.14-2.93-3.01c0-1.92,1.26-3.09,3.02-3.09
	C66.29,40.38,67.45,41.6,67.45,43.38 M63.05,43.44c0,1.13,0.55,1.98,1.45,1.98c0.84,0,1.43-0.83,1.43-2c0-0.91-0.41-1.96-1.42-1.96
	C63.47,41.46,63.05,42.46,63.05,43.44"/>
<path d="M68.67,42.25c0-0.67-0.01-1.23-0.05-1.74h1.27l0.06,0.86h0.04c0.29-0.46,0.82-1,1.8-1c0.77,0,1.37,0.43,1.62,1.08h0.02
	c0.2-0.32,0.44-0.56,0.72-0.73c0.32-0.23,0.7-0.35,1.17-0.35c0.97,0,1.96,0.66,1.96,2.53v3.44h-1.44v-3.23
	c0-0.97-0.34-1.55-1.04-1.55c-0.5,0-0.88,0.36-1.03,0.78c-0.04,0.14-0.07,0.32-0.07,0.49v3.5h-1.44v-3.38
	c0-0.82-0.32-1.39-1.01-1.39c-0.55,0-0.92,0.43-1.06,0.84c-0.06,0.14-0.08,0.31-0.08,0.48v3.45h-1.44V42.25z"/>
<path d="M79.89,43.84c0.04,1.05,0.86,1.51,1.8,1.51c0.68,0,1.18-0.1,1.62-0.26l0.21,1.02c-0.5,0.2-1.2,0.36-2.04,0.36
	c-1.9,0-3.01-1.16-3.01-2.95c0-1.62,0.98-3.14,2.85-3.14c1.89,0,2.52,1.56,2.52,2.84c0,0.28-0.02,0.49-0.05,0.62H79.89z
	 M82.45,42.81c0.01-0.54-0.23-1.43-1.21-1.43c-0.91,0-1.29,0.83-1.36,1.43H82.45z"/>
<path d="M86.71,44.06l-0.7,2.29H84.5l2.59-8.08h1.88l2.63,8.08h-1.58l-0.73-2.29H86.71z M89.03,42.94l-0.64-1.99
	c-0.16-0.49-0.29-1.04-0.41-1.51h-0.02c-0.12,0.47-0.24,1.03-0.38,1.51l-0.62,1.99H89.03z"/>
<path d="M93.23,40.51l0.61,2.65c0.13,0.62,0.26,1.26,0.37,1.89h0.02c0.12-0.64,0.31-1.28,0.48-1.88l0.76-2.66h1.2l0.73,2.59
	c0.18,0.68,0.34,1.32,0.47,1.96h0.02c0.1-0.64,0.23-1.27,0.38-1.96l0.65-2.59h1.45l-1.83,5.84h-1.37l-0.7-2.37
	c-0.18-0.61-0.31-1.16-0.44-1.87h-0.02c-0.12,0.72-0.28,1.29-0.45,1.87l-0.74,2.37h-1.38l-1.73-5.84H93.23z"/>
<path d="M104.54,46.35l-0.1-0.65h-0.04c-0.36,0.46-0.97,0.78-1.73,0.78c-1.17,0-1.83-0.85-1.83-1.74c0-1.48,1.31-2.22,3.47-2.21
	v-0.1c0-0.38-0.16-1.02-1.19-1.02c-0.58,0-1.18,0.18-1.57,0.43l-0.29-0.96c0.43-0.26,1.19-0.52,2.11-0.52
	c1.87,0,2.41,1.19,2.41,2.46v2.11c0,0.53,0.02,1.04,0.08,1.4H104.54z M104.35,43.5c-1.04-0.02-2.04,0.2-2.04,1.09
	c0,0.58,0.37,0.84,0.84,0.84c0.59,0,1.02-0.38,1.15-0.8c0.04-0.11,0.05-0.23,0.05-0.32V43.5z"/>
<path d="M108.16,40.51l1.06,3.13c0.12,0.36,0.24,0.8,0.32,1.14h0.04c0.09-0.34,0.2-0.77,0.31-1.15l0.91-3.12h1.58l-1.46,3.98
	c-0.8,2.18-1.34,3.16-2.04,3.75c-0.58,0.52-1.18,0.71-1.55,0.76l-0.34-1.25c0.25-0.06,0.56-0.19,0.86-0.41
	c0.28-0.18,0.6-0.53,0.8-0.92c0.06-0.11,0.1-0.19,0.1-0.26c0-0.06-0.01-0.14-0.08-0.29l-2.13-5.36H108.16z"/>
<polygon points="115.78,38.27 120.44,38.27 120.44,39.48 117.25,39.48 117.25,41.71 120.23,41.71 120.23,42.92 117.25,42.92 
	117.25,46.35 115.78,46.35 "/>
<path d="M124.61,46.35l-0.1-0.65h-0.04c-0.36,0.46-0.97,0.78-1.73,0.78c-1.17,0-1.83-0.85-1.83-1.74c0-1.48,1.31-2.22,3.47-2.21
	v-0.1c0-0.38-0.16-1.02-1.19-1.02c-0.58,0-1.17,0.18-1.57,0.43l-0.29-0.96c0.43-0.26,1.19-0.52,2.11-0.52
	c1.87,0,2.41,1.19,2.41,2.46v2.11c0,0.53,0.02,1.04,0.08,1.4H124.61z M124.42,43.5c-1.04-0.02-2.04,0.2-2.04,1.09
	c0,0.58,0.37,0.84,0.84,0.84c0.59,0,1.02-0.38,1.15-0.8c0.04-0.11,0.05-0.23,0.05-0.32V43.5z"/>
<path d="M127.42,42.25c0-0.67-0.01-1.23-0.05-1.74h1.27l0.06,0.86h0.04c0.29-0.46,0.82-1,1.8-1c0.77,0,1.37,0.43,1.62,1.08h0.02
	c0.2-0.32,0.44-0.56,0.72-0.73c0.32-0.23,0.7-0.35,1.17-0.35c0.97,0,1.95,0.66,1.95,2.53v3.44h-1.44v-3.23
	c0-0.97-0.34-1.55-1.04-1.55c-0.5,0-0.88,0.36-1.03,0.78c-0.04,0.14-0.07,0.32-0.07,0.49v3.5H131v-3.38c0-0.82-0.32-1.39-1.01-1.39
	c-0.55,0-0.92,0.43-1.06,0.84c-0.06,0.14-0.08,0.31-0.08,0.48v3.45h-1.44V42.25z"/>
<path d="M139.17,38.88c0,0.44-0.32,0.79-0.84,0.79c-0.49,0-0.82-0.35-0.82-0.79c0-0.46,0.34-0.8,0.83-0.8
	C138.84,38.07,139.15,38.42,139.17,38.88 M137.59,40.51h1.49v5.84h-1.49V40.51z"/>
<rect x="140.67" y="37.83" width="1.49" height="8.51"/>
<path d="M144.67,40.51l1.06,3.13c0.12,0.36,0.24,0.8,0.32,1.14h0.04c0.09-0.34,0.2-0.77,0.31-1.15l0.91-3.12h1.58l-1.46,3.98
	c-0.8,2.18-1.34,3.16-2.04,3.75c-0.58,0.52-1.18,0.71-1.55,0.76l-0.34-1.25c0.25-0.06,0.56-0.19,0.86-0.41
	c0.28-0.18,0.6-0.53,0.8-0.92c0.06-0.11,0.1-0.19,0.1-0.26c0-0.06-0.01-0.14-0.08-0.29l-2.13-5.36H144.67z"/>
</svg>
