<?xml version="1.0" standalone="no"?>
<!DOCTYPE svg PUBLIC "-//W3C//DTD SVG 20010904//EN"
 "http://www.w3.org/TR/2001/REC-SVG-20010904/DTD/svg10.dtd">
<svg version="1.0" xmlns="http://www.w3.org/2000/svg"
 width="500.000000pt" height="500.000000pt" viewBox="0 0 500.000000 500.000000"
 preserveAspectRatio="xMidYMid meet">
<metadata>
Created by potrace 1.11, written by Peter Selinger 2001-2013
</metadata>
<g transform="translate(0.000000,500.000000) scale(0.100000,-0.100000)"
fill="#000000" stroke="none">
<path d="M4169 4676 c-2 -2 -29 -6 -59 -9 -152 -17 -327 -39 -347 -44 -19 -4
-23 -12 -24 -47 0 -22 -2 -48 -4 -57 -1 -10 -6 -61 -10 -115 -3 -54 -8 -101
-10 -104 -2 -4 -17 -184 -18 -227 -1 -19 -4 -17 -51 31 -42 42 -92 62 -136 53
-30 -6 -76 -36 -114 -75 l-39 -41 -111 59 c-309 164 -626 243 -976 244 -214 1
-336 -12 -513 -54 -427 -103 -821 -344 -1108 -680 -56 -66 -169 -216 -169
-225 0 -2 -15 -28 -34 -57 -94 -148 -203 -413 -242 -589 -38 -175 -57 -335
-58 -494 0 -84 12 -276 19 -298 2 -6 6 -30 9 -52 3 -22 10 -62 16 -90 7 -27
13 -59 16 -70 21 -109 105 -330 180 -473 310 -592 838 -976 1519 -1106 12 -2
48 -7 80 -11 33 -4 71 -9 85 -11 34 -6 364 -6 381 0 8 3 39 7 69 10 128 12
329 60 470 113 560 208 1012 651 1231 1206 136 344 179 769 115 1132 -31 175
-86 359 -146 488 -16 36 -30 69 -30 74 0 5 25 30 55 56 91 80 99 161 23 243
l-41 45 282 -2 c155 -1 284 1 287 4 3 3 26 97 50 209 25 112 47 210 49 218 3
10 -25 49 -71 100 -42 47 -91 101 -108 120 -17 19 -57 64 -90 100 -33 36 -76
83 -96 105 -128 142 -285 311 -294 317 -12 8 -30 10 -37 4z m-1684 -681 c604
-86 1106 -453 1365 -998 166 -351 212 -718 139 -1104 -130 -682 -676 -1239
-1354 -1381 -155 -33 -160 -33 -340 -37 -300 -7 -533 42 -803 170 -200 96
-354 208 -517 376 -140 146 -221 260 -311 444 -147 302 -205 635 -167 972 88
787 692 1424 1468 1548 22 3 58 10 80 14 48 9 370 6 440 -4z"/>
<path d="M1823 3528 c-66 -17 -113 -122 -113 -256 0 -43 7 -76 21 -107 25 -52
88 -111 130 -120 16 -4 31 -11 35 -16 12 -21 3 -581 -11 -649 -3 -14 0 -34 8
-43 12 -18 14 -18 35 0 31 25 32 51 47 781 7 332 3 372 -38 394 -36 19 -80 25
-114 16z m67 -78 c18 -18 19 -32 16 -185 -1 -90 -5 -167 -7 -169 -9 -10 -88
50 -100 74 -29 65 -9 249 32 283 27 22 35 21 59 -3z"/>
<path d="M2980 3498 c-22 -8 -24 -16 -10 -38 7 -11 28 -15 82 -15 l73 0 -1
-45 c-1 -60 -14 -250 -18 -281 -3 -13 -7 -50 -11 -83 -4 -32 -8 -68 -10 -80
-2 -11 -6 -39 -9 -62 -11 -101 -51 -293 -81 -399 -13 -44 -25 -89 -27 -101 -3
-21 17 -54 33 -54 17 0 49 45 49 69 0 14 6 47 14 72 17 54 47 231 61 349 3 30
8 66 10 80 2 14 6 54 10 90 3 36 9 90 12 120 3 30 7 66 8 80 4 37 16 130 21
153 27 144 17 159 -102 156 -46 -2 -92 -7 -104 -11z"/>
<path d="M1304 3485 c-71 -31 -86 -105 -79 -415 3 -135 8 -258 10 -275 2 -16
6 -55 10 -85 30 -286 115 -410 225 -332 62 44 92 159 93 357 3 329 -32 568
-97 679 -41 70 -102 97 -162 71z m68 -45 c57 -44 100 -208 114 -435 20 -316
-3 -541 -59 -577 -29 -18 -70 47 -83 130 -3 20 -7 48 -10 62 -5 34 -16 169
-19 255 -1 39 -6 111 -10 161 -11 132 -13 344 -3 378 7 27 23 45 39 46 4 0 18
-9 31 -20z"/>
<path d="M2360 3479 c-10 -17 -180 -679 -194 -750 -2 -13 -25 -107 -51 -208
-25 -101 -44 -190 -41 -197 24 -63 75 91 215 652 97 388 99 396 107 465 5 37
3 47 -10 52 -10 4 -20 -1 -26 -14z"/>
<path d="M2587 3490 c-37 -11 -64 -43 -79 -94 -20 -66 -15 -576 7 -701 3 -16
10 -57 16 -90 13 -72 44 -168 66 -201 50 -76 143 -59 190 36 34 67 46 149 46
315 1 290 -26 503 -78 621 -23 53 -78 114 -101 114 -7 0 -18 2 -26 4 -7 2 -26
0 -41 -4z m62 -56 c29 -24 61 -102 76 -183 3 -14 7 -37 10 -51 14 -63 27 -252
28 -395 1 -183 -25 -345 -60 -372 -34 -27 -72 28 -88 127 -4 25 -9 54 -11 65
-6 33 -16 151 -19 232 -1 43 -6 125 -10 183 -11 168 -12 343 -4 374 8 27 24
45 41 46 3 0 20 -12 37 -26z"/>
<path d="M2736 2055 c-19 -19 -40 -52 -46 -72 -17 -60 -24 -184 -11 -229 15
-55 69 -115 130 -143 l51 -24 1 -91 c2 -255 -4 -482 -15 -552 -3 -17 0 -39 7
-48 12 -17 14 -17 34 1 32 27 33 44 47 765 6 306 5 341 -10 374 -19 41 -46 54
-109 54 -37 0 -50 -6 -79 -35z m121 -55 c9 -18 12 -69 9 -183 -2 -87 -6 -160
-8 -163 -10 -10 -91 60 -103 89 -25 60 -5 223 31 262 29 31 54 29 71 -5z"/>
<path d="M1539 2057 c-46 -36 -71 -133 -42 -163 25 -25 47 -12 63 36 23 67 34
82 53 74 37 -14 51 -63 53 -189 3 -133 -12 -246 -50 -377 -28 -94 -160 -431
-182 -463 -20 -28 -17 -53 6 -65 26 -14 248 -4 267 12 17 14 16 36 -2 55 -12
12 -31 14 -91 9 -42 -3 -80 -9 -85 -12 -19 -11 -6 31 66 217 121 311 150 441
143 639 -5 138 -15 169 -68 214 -35 29 -102 36 -131 13z"/>
<path d="M2338 2064 c-2 -1 -16 -4 -32 -7 -16 -2 -35 -12 -42 -22 -20 -27 0
-45 51 -45 23 0 48 -6 54 -13 6 -9 13 -86 16 -198 3 -101 8 -206 10 -234 2
-27 6 -77 9 -110 8 -106 19 -298 20 -375 l2 -75 -35 -11 c-37 -11 -48 -36 -25
-58 10 -10 37 -13 104 -11 102 4 147 20 142 50 -5 28 -6 28 -62 28 -47 0 -50
2 -50 26 -1 34 -8 185 -15 291 -7 120 -14 266 -20 395 -3 61 -8 124 -11 140
-3 17 -6 72 -7 123 0 85 -2 93 -21 97 -29 7 -85 13 -88 9z"/>
<path d="M1930 2042 c-33 -16 -56 -55 -69 -117 -14 -69 -4 -527 15 -677 10
-78 43 -206 65 -254 51 -106 151 -103 206 7 34 67 46 148 46 319 0 289 -26
499 -78 615 -24 55 -77 115 -103 116 -9 0 -24 2 -33 4 -9 1 -31 -4 -49 -13z
m85 -56 c28 -31 54 -94 71 -179 21 -103 22 -112 30 -262 12 -205 9 -314 -13
-455 -5 -38 -30 -91 -46 -102 -28 -17 -59 26 -77 107 -18 78 -27 168 -35 340
-2 44 -6 116 -10 160 -3 44 -7 144 -9 222 -4 199 19 243 89 169z"/>
</g>
</svg>
