<svg viewBox="0 0 512.00018 512" xmlns="http://www.w3.org/2000/svg"><path d="m120.558594 512c-1.945313 0-3.894532-.378906-5.738282-1.144531l-105.558593-43.722657c-4.496094-1.863281-7.808594-5.789062-8.886719-10.53125-1.082031-4.746093.210938-9.71875 3.457031-13.339843 4.863281-5.425781 11.851563-16.183594 17.507813-36.625 1.144531-4.140625 4.011718-7.59375 7.875-9.480469 3.863281-1.882812 8.351562-2.019531 12.320312-.375l100.210938 41.507812c3.96875 1.644532 7.042968 4.914063 8.441406 8.976563 1.398438 4.066406.984375 8.535156-1.132812 12.273437-10.453126 18.457032-13.121094 31.003907-13.519532 38.277344-.265625 4.859375-2.871094 9.285156-6.988281 11.878906-2.425781 1.527344-5.199219 2.304688-7.988281 2.304688zm-82.742188-65.511719 71.410156 29.578125c1.550782-5.246094 3.574219-10.671875 6.074219-16.261718l-70.285156-29.113282c-2.183594 5.722656-4.585937 10.992188-7.199219 15.796875zm0 0" fill="#c5e1e6"/><path d="m250.085938 254.609375-155.28125-64.320313c-7.414063-3.066406-15.9375.242188-19.332032 7.515626-.652344 1.394531-1.3125 2.820312-1.980468 4.296874-.035157.074219-.070313.152344-.105469.230469l-6.71875 15.457031c-.035157.078126-.066407.152344-.097657.230469-13.757812 33.152344-31.507812 85.71875-37.945312 147.878907-1.578125 15.269531-4.03125 28.976562-7.285156 40.738281-2.023438 7.296875 1.71875 14.960937 8.714844 17.859375l100.210937 41.507812c1.867187.773438 3.8125 1.144532 5.734375 1.144532 5.261719 0 10.320312-2.78125 13.054688-7.609376 6.019531-10.621093 13.976562-22.046874 23.652343-33.960937 39.398438-48.5 64.027344-98.242187 77.75-131.429687.03125-.078126.0625-.15625.09375-.234376l6.179688-15.683593c.03125-.078125.0625-.160157.09375-.238281.5625-1.507813 1.097656-2.96875 1.621093-4.402344 2.738282-7.542969-.945312-15.910156-8.359374-18.980469zm0 0" fill="#9b2e5d"/><path d="m261.738281 216.386719-148.148437-61.363281c-6.773438-2.804688-14.585938-.300782-18.464844 5.921874l-.980469 1.570313c-2.648437 4.257813-9.773437 16.222656-18.671875 35.289063-1.730468 3.710937-1.871094 7.964843-.390625 11.777343 1.484375 3.816407 4.460938 6.859375 8.242188 8.425781l155.277343 64.320313c1.839844.761719 3.792969 1.140625 5.742188 1.140625 2.058594 0 4.121094-.425781 6.046875-1.273438 3.746094-1.648437 6.65625-4.757812 8.050781-8.601562 6.871094-18.914062 10.308594-32.003906 11.753906-38.164062l.414063-1.789063c1.660156-7.148437-2.09375-14.445313-8.871094-17.253906zm0 0" fill="#fff9f2"/><path d="m295.101562 39.101562c0-21.5625-17.539062-39.101562-39.101562-39.101562s-39.101562 17.539062-39.101562 39.101562c0 21.558594 17.539062 39.101563 39.101562 39.101563s39.101562-17.542969 39.101562-39.101563zm0 0" fill="#fff9f2"/><path d="m256 0v78.203125c21.5625 0 39.101562-17.542969 39.101562-39.101563 0-21.558593-17.539062-39.101562-39.101562-39.101562zm0 0" fill="#ffe1ba"/><path d="m304.199219 88.367188c-21.558594 0-39.097657 17.539062-39.097657 39.101562 0 21.558594 17.539063 39.097656 39.097657 39.097656 21.5625 0 39.101562-17.539062 39.101562-39.097656 0-21.5625-17.539062-39.101562-39.101562-39.101562zm0 0" fill="#ffe1ba"/><path d="m207.800781 88.367188c-21.558593 0-39.101562 17.539062-39.101562 39.101562 0 21.558594 17.542969 39.097656 39.101562 39.097656 21.558594 0 39.097657-17.539062 39.097657-39.097656 0-21.5625-17.539063-39.101562-39.097657-39.101562zm0 0" fill="#fff9f2"/><path d="m391.441406 512c-2.789062 0-5.566406-.777344-7.992187-2.304688-4.117188-2.59375-6.722657-7.019531-6.988281-11.878906-.398438-7.277344-3.066407-19.828125-13.515626-38.277344-2.121093-3.742187-2.53125-8.210937-1.132812-12.273437 1.394531-4.0625 4.472656-7.335937 8.441406-8.980469l100.210938-41.503906c3.96875-1.644531 8.453125-1.507812 12.316406.375 3.863281 1.886719 6.730469 5.339844 7.878906 9.480469 5.65625 20.445312 12.644532 31.199219 17.503906 36.621093 3.25 3.621094 4.539063 8.59375 3.460938 13.339844s-4.390625 8.671875-8.886719 10.535156l-105.558593 43.722657c-1.84375.765625-3.796876 1.144531-5.738282 1.144531zm5.257813-52.195312c2.496093 5.589843 4.523437 11.015624 6.074219 16.261718l71.410156-29.578125c-2.613282-4.804687-5.015625-10.074219-7.203125-15.792969zm0 0" fill="#c5e1e6"/><path d="m261.738281 216.386719-148.148437-61.363281c-6.773438-2.804688-14.585938-.300782-18.464844 5.921874l-.980469 1.570313c-2.648437 4.257813-9.773437 16.222656-18.671875 35.289063-.652344 1.394531-1.3125 2.820312-1.980468 4.296874-.035157.074219-.070313.152344-.101563.230469l-6.722656 15.457031c-.035157.078126-.066407.152344-.097657.230469-13.757812 33.152344-31.507812 85.71875-37.945312 147.878907-1.578125 15.269531-4.03125 28.976562-7.285156 40.738281-5.65625 20.4375-12.644532 31.195312-17.507813 36.621093-3.246093 3.625-4.539062 8.597657-3.457031 13.339844 1.078125 4.746094 4.390625 8.671875 8.886719 10.535156l105.558593 43.722657c1.84375.765625 3.792969 1.144531 5.738282 1.144531 2.789062 0 5.5625-.777344 7.988281-2.308594 4.117187-2.589844 6.722656-7.015625 6.988281-11.875.398438-7.277344 3.066406-19.824218 13.519532-38.277344 6.019531-10.621093 13.976562-22.046874 23.652343-33.960937 39.398438-48.5 64.027344-98.242187 77.75-131.429687.03125-.078126.0625-.152344.09375-.234376l6.179688-15.683593c.03125-.078125.0625-.160157.09375-.242188.5625-1.503906 1.097656-2.964843 1.621093-4.398437 6.867188-18.910156 10.304688-32 11.75-38.160156l.414063-1.792969c1.660156-7.144531-2.09375-14.441407-8.871094-17.25zm-31.492187 46.960937c-.476563 1.308594-.964844 2.640625-1.476563 4.011719l-6.085937 15.441406c-12.964844 31.339844-36.191406 78.226563-73.261719 123.859375-10.726563 13.207032-19.632813 26.023438-26.46875 38.089844-.308594.542969-.59375 1.078125-.894531 1.621094l-72.320313-29.960938c.167969-.589844.34375-1.171875.511719-1.773437 3.699219-13.363281 6.464844-28.726563 8.214844-45.652344 6.054687-58.480469 22.78125-108.042969 35.765625-139.351563l6.617187-15.222656c.613282-1.34375 1.214844-2.644531 1.808594-3.917968 4.507812-9.660157 8.464844-17.25 11.507812-22.761719l124.03125 51.375c-1.753906 6.082031-4.324218 14.269531-7.949218 24.242187zm0 0" fill="#ffe1ba"/><path d="m490.660156 406.636719c-3.257812-11.761719-5.707031-25.46875-7.289062-40.742188-6.441406-62.167969-24.195313-114.746093-37.957032-147.90625-.03125-.074219-.0625-.152343-.097656-.230469l-6.722656-15.460937c-.03125-.078125-.066406-.15625-.101562-.234375-.667969-1.460938-1.320313-2.875-1.96875-4.261719-3.394532-7.273437-11.914063-10.582031-19.332032-7.511719l-155.28125 64.320313c-7.417968 3.070313-11.101562 11.4375-8.359375 18.984375.527344 1.445312 1.070313 2.917969 1.636719 4.433594.03125.082031.058594.160156.089844.238281l6.179687 15.683594.09375.234375c13.71875 33.167968 38.339844 82.890625 77.738281 131.394531 9.679688 11.914063 17.640626 23.339844 23.652344 33.957031 2.738282 4.832032 7.796875 7.609375 13.058594 7.609375 1.917969 0 3.863281-.367187 5.734375-1.144531l100.207031-41.503906c7-2.898438 10.738282-10.558594 8.71875-17.859375zm0 0" fill="#631b3a"/><path d="m436.523438 197.800781c-8.878907-19.007812-16.011719-31-18.671876-35.28125l-.96875-1.5625c-3.878906-6.230469-11.695312-8.742187-18.476562-5.933593l-148.148438 61.363281c-6.773437 2.808593-10.523437 10.09375-8.871093 17.238281l.417969 1.820312c1.144531 4.898438 4.574218 18.417969 11.75 38.148438 1.394531 3.84375 4.304687 6.953125 8.050781 8.601562 1.925781.847657 3.984375 1.273438 6.042969 1.273438 1.953124 0 3.902343-.382812 5.742187-1.144531l155.28125-64.320313c3.78125-1.566406 6.757813-4.609375 8.242187-8.425781 1.480469-3.816406 1.339844-8.070313-.390624-11.777344zm0 0" fill="#ffe1ba"/><path d="m508.167969 443.257812c-4.863281-5.421874-11.847657-16.175781-17.507813-36.621093-3.257812-11.761719-5.707031-25.46875-7.289062-40.742188-6.441406-62.167969-24.195313-114.746093-37.957032-147.90625-.03125-.074219-.0625-.152343-.097656-.230469l-6.722656-15.460937c-.03125-.078125-.066406-.15625-.101562-.234375-.667969-1.460938-1.320313-2.875-1.96875-4.261719-8.878907-19.007812-16.011719-31-18.671876-35.28125l-.96875-1.558593c-3.878906-6.234376-11.695312-8.746094-18.476562-5.9375l-148.148438 61.363281c-6.773437 2.808593-10.523437 10.09375-8.871093 17.238281l.417969 1.820312c1.144531 4.898438 4.574218 18.417969 11.75 38.148438.527343 1.445312 1.066406 2.921875 1.632812 4.433594.03125.082031.0625.160156.09375.238281l6.175781 15.683594c.03125.078125.0625.15625.097657.234375 13.714843 33.167968 38.335937 82.890625 77.734374 131.394531 9.679688 11.914063 17.640626 23.339844 23.65625 33.957031 10.449219 18.453125 13.117188 31.003906 13.515626 38.28125.265624 4.859375 2.871093 9.285156 6.988281 11.875 2.425781 1.527344 5.203125 2.308594 7.992187 2.308594 1.941406 0 3.894532-.378906 5.738282-1.144531l105.558593-43.726563c4.496094-1.859375 7.808594-5.789062 8.890625-10.53125 1.078125-4.746094-.214844-9.714844-3.460937-13.339844zm-145.59375-36.59375c-37.070313-45.636718-60.289063-92.511718-73.25-123.832031l-6.082031-15.441406c-.519532-1.382813-1.015626-2.726563-1.496094-4.050781-3.636719-10.003906-6.207032-18.175782-7.953125-24.230469l124.035156-51.375c3.050781 5.519531 7.011719 13.117187 11.511719 22.757813.59375 1.261718 1.191406 2.550781 1.796875 3.882812l6.617187 15.230469c12.988282 31.316406 29.71875 80.882812 35.777344 139.378906 1.753906 16.929687 4.515625 32.289063 8.21875 45.652344.164062.601562.339844 1.183593.511719 1.777343l-72.320313 29.957032c-.300781-.542969-.585937-1.078125-.894531-1.617188-6.835937-12.074218-15.746094-24.886718-26.472656-38.089844zm0 0" fill="#ffb64c"/></svg>