<?xml version="1.0" encoding="iso-8859-1"?>
<!-- Generator: Adobe Illustrator 22.1.0, SVG Export Plug-In . SVG Version: 6.00 Build 0)  -->
<svg xmlns="http://www.w3.org/2000/svg" xmlns:xlink="http://www.w3.org/1999/xlink" version="1.1" id="Layer_3" x="0px" y="0px" viewBox="0 0 64 64" style="enable-background:new 0 0 64 64;" xml:space="preserve">
<g>
	<g>
		<path style="fill:#999999;" d="M33.293,55.707L32,54.414c-0.645-0.645-1-1.502-1-2.414s0.355-1.77,1-2.414L32.586,49    C32.849,48.737,33,48.372,33,48s-0.151-0.737-0.414-1L32,46.414c-0.645-0.645-1-1.502-1-2.414s0.355-1.77,1-2.414L32.586,41    C32.849,40.737,33,40.372,33,40s-0.151-0.737-0.414-1L32,38.414c-0.645-0.645-1-1.502-1-2.414v-2h2v2c0,0.372,0.151,0.737,0.414,1    L34,37.586c0.645,0.645,1,1.502,1,2.414s-0.355,1.77-1,2.414L33.414,43C33.151,43.263,33,43.628,33,44s0.151,0.737,0.414,1    L34,45.586c0.645,0.645,1,1.502,1,2.414s-0.355,1.77-1,2.414L33.414,51C33.151,51.263,33,51.628,33,52s0.151,0.737,0.414,1    l1.293,1.293L33.293,55.707z"/>
	</g>
	<path style="fill:#5789D6;" d="M29.819,25.954L27,33h1c0.64,0,1.254,0.254,1.707,0.707l0.586,0.586C30.746,34.746,31.36,35,32,35h0   c0.64,0,1.254-0.254,1.707-0.707l0.586-0.586C34.746,33.254,35.36,33,36,33h1l-2.819-7.046"/>
	<g>
		<rect x="31" y="27" style="fill:#699CE6;" width="2" height="4"/>
	</g>
	<g>
		<path style="fill:#999999;" d="M16,62h-2v-0.586c0-0.635-0.258-1.258-0.707-1.707C12.459,58.874,12,57.765,12,56.586V55h2v1.586    c0,0.635,0.258,1.258,0.707,1.707C15.541,59.126,16,60.235,16,61.414V62z"/>
	</g>
	<path style="fill:#CA5057;" d="M10.819,46.954L8,54h1c0.64,0,1.254,0.254,1.707,0.707l0.586,0.586C11.746,55.746,12.36,56,13,56h0   c0.64,0,1.254-0.254,1.707-0.707l0.586-0.586C15.746,54.254,16.36,54,17,54h1l-2.819-7.046"/>
	<g>
		<rect x="12" y="48" style="fill:#DC6068;" width="2" height="4"/>
	</g>
	<g>
		<path style="fill:#999999;" d="M54,62h-2v-0.586c0-0.635-0.258-1.258-0.707-1.707C50.459,58.874,50,57.765,50,56.586V55h2v1.586    c0,0.635,0.258,1.258,0.707,1.707C53.541,59.126,54,60.235,54,61.414V62z"/>
	</g>
	<path style="fill:#EEBC5A;" d="M48.819,46.954L46,54h1c0.64,0,1.254,0.254,1.707,0.707l0.586,0.586C49.746,55.746,50.36,56,51,56   l0,0c0.64,0,1.254-0.254,1.707-0.707l0.586-0.586C53.746,54.254,54.36,54,55,54h1l-2.819-7.046"/>
	<g>
		<rect x="50" y="48" style="fill:#F8CF6A;" width="2" height="4"/>
	</g>
	<ellipse style="fill:#CA5057;" cx="13" cy="36" rx="11" ry="13"/>
	<ellipse style="fill:#DC6068;" cx="11.5" cy="36" rx="9.5" ry="12.865"/>
	<ellipse style="fill:#EEBC5A;" cx="51" cy="36" rx="11" ry="13"/>
	<ellipse style="fill:#F8CF6A;" cx="49.5" cy="36" rx="9.5" ry="12.865"/>
	<ellipse style="fill:#5789D6;" cx="32" cy="15" rx="11" ry="13"/>
	<ellipse style="fill:#699CE6;" cx="30.5" cy="15" rx="9.5" ry="12.865"/>
</g>
</svg>
