<?xml version="1.0" encoding="iso-8859-1"?>
<!-- Generator: Adobe Illustrator 22.1.0, SVG Export Plug-In . SVG Version: 6.00 Build 0)  -->
<svg xmlns="http://www.w3.org/2000/svg" xmlns:xlink="http://www.w3.org/1999/xlink" version="1.1" id="Layer_3" x="0px" y="0px" viewBox="0 0 64 64" style="enable-background:new 0 0 64 64;" xml:space="preserve">
<g>
	<g>
		<path style="fill:#BC8F6F;" d="M38.008,24.124l-0.031-0.25c-0.593-4.745-2.943-9.044-6.617-12.106l1.28-1.536    c4.064,3.387,6.665,8.144,7.321,13.394l0.031,0.25L38.008,24.124z"/>
	</g>
	<g>
		<path style="fill:#BC8F6F;" d="M29.014,32.165c-0.544-3.266-2.954-5.964-6.137-6.874l-1.151-0.329l0.55-1.923l1.151,0.329    c3.922,1.12,6.89,4.444,7.56,8.468L29.014,32.165z"/>
	</g>
	<g>
		<path style="fill:#BC8F6F;" d="M20.105,22.447c-1.838-3.677-4.876-6.714-8.553-8.553l-2-1l0.895-1.789l2,1    c4.062,2.031,7.417,5.386,9.447,9.447L20.105,22.447z"/>
	</g>
	<path style="fill:#A795E6;" d="M8.172,28.624C8.061,28.128,8,27.578,8,27c0-2.209,0.895-4,2-4s2,1.791,2,4   c0,0.552-0.056,1.078-0.157,1.557"/>
	<path style="fill:#A795E6;" d="M11.828,33.376C11.939,33.872,12,34.422,12,35c0,2.209-0.895,4-2,4s-2-1.791-2-4   c0-0.552,0.056-1.078,0.157-1.557"/>
	<path style="fill:#A795E6;" d="M7.624,32.828C7.128,32.939,6.578,33,6,33c-2.209,0-4-0.895-4-2c0-1.105,1.791-2,4-2   c0.552,0,1.078,0.056,1.557,0.157"/>
	<path style="fill:#A795E6;" d="M12.376,29.172C12.872,29.061,13.422,29,14,29c2.209,0,4,0.895,4,2c0,1.105-1.791,2-4,2   c-0.552,0-1.078-0.056-1.557-0.157"/>
	<circle style="fill:#7A6AC3;" cx="10" cy="31" r="3"/>
	<path style="fill:#F8CF6A;" d="M8.172,8.624C8.061,8.128,8,7.578,8,7c0-2.209,0.895-4,2-4s2,1.791,2,4   c0,0.552-0.056,1.078-0.157,1.557"/>
	<path style="fill:#F8CF6A;" d="M11.828,13.376C11.939,13.872,12,14.422,12,15c0,2.209-0.895,4-2,4s-2-1.791-2-4   c0-0.552,0.056-1.078,0.157-1.557"/>
	<path style="fill:#F8CF6A;" d="M7.624,12.828C7.128,12.939,6.578,13,6,13c-2.209,0-4-0.895-4-2s1.791-2,4-2   c0.552,0,1.078,0.056,1.557,0.157"/>
	<path style="fill:#F8CF6A;" d="M12.376,9.172C12.872,9.061,13.422,9,14,9c2.209,0,4,0.895,4,2s-1.791,2-4,2   c-0.552,0-1.078-0.056-1.557-0.157"/>
	<circle style="fill:#EEBC5A;" cx="10" cy="11" r="3"/>
	<path style="fill:#70B48F;" d="M21.172,20.624C21.061,20.128,21,19.578,21,19c0-2.209,0.895-4,2-4s2,1.791,2,4   c0,0.552-0.056,1.078-0.157,1.557"/>
	<path style="fill:#70B48F;" d="M24.828,25.376C24.939,25.872,25,26.422,25,27c0,2.209-0.895,4-2,4s-2-1.791-2-4   c0-0.552,0.056-1.078,0.157-1.557"/>
	<path style="fill:#70B48F;" d="M20.624,24.828C20.128,24.939,19.578,25,19,25c-2.209,0-4-0.895-4-2s1.791-2,4-2   c0.552,0,1.078,0.056,1.557,0.157"/>
	<path style="fill:#70B48F;" d="M25.376,21.172C25.872,21.061,26.422,21,27,21c2.209,0,4,0.895,4,2s-1.791,2-4,2   c-0.552,0-1.078-0.056-1.557-0.157"/>
	<circle style="fill:#599072;" cx="23" cy="23" r="3"/>
	<path style="fill:#DC6068;" d="M29.172,7.624C29.061,7.128,29,6.578,29,6c0-2.209,0.895-4,2-4c1.105,0,2,1.791,2,4   c0,0.552-0.056,1.078-0.157,1.557"/>
	<path style="fill:#DC6068;" d="M32.828,12.376C32.939,12.872,33,13.422,33,14c0,2.209-0.895,4-2,4c-1.105,0-2-1.791-2-4   c0-0.552,0.056-1.078,0.157-1.557"/>
	<path style="fill:#DC6068;" d="M28.624,11.828C28.128,11.939,27.578,12,27,12c-2.209,0-4-0.895-4-2s1.791-2,4-2   c0.552,0,1.078,0.056,1.557,0.157"/>
	<path style="fill:#DC6068;" d="M33.376,8.172C33.872,8.061,34.422,8,35,8c2.209,0,4,0.895,4,2s-1.791,2-4,2   c-0.552,0-1.078-0.056-1.557-0.157"/>
	<circle style="fill:#CA5057;" cx="31" cy="10" r="3"/>
	<polygon style="fill:#D9D7D8;" points="37,58 25,36 47,14 43,58  "/>
	<polygon style="fill:#EFEDEE;" points="25,36 37,58 40,58 43.7,17.3  "/>
	<polygon style="fill:#5789D6;" points="43.364,54 34.818,54 37,58 43,58  "/>
	<polygon style="fill:#699CE6;" points="34.818,54 37,58 40.182,58 40.545,54  "/>
	<polygon style="fill:#5789D6;" points="47,14 25,36 27.118,39.882 46.4,20.6  "/>
	<polygon style="fill:#699CE6;" points="25,36 27.118,39.882 43.4,23.6 44,17  "/>
	<rect x="34" y="58" style="fill:#7E4E4D;" width="12" height="4"/>
	<rect x="34" y="58" style="fill:#8D5655;" width="9" height="4"/>
	<circle style="fill:#94CCE7;" cx="16" cy="59" r="3"/>
	<circle style="fill:#94CCE7;" cx="26" cy="56" r="2"/>
	<circle style="fill:#DC6068;" cx="7" cy="53" r="2"/>
	<circle style="fill:#DC6068;" cx="16" cy="47" r="4"/>
	<circle style="fill:#EEBC5A;" cx="51" cy="44" r="2"/>
	<circle style="fill:#EEBC5A;" cx="58" cy="37" r="4"/>
	<circle style="fill:#599072;" cx="52" cy="25" r="2"/>
	<circle style="fill:#599072;" cx="58" cy="12" r="4"/>
</g>
</svg>
