<?xml version="1.0" encoding="iso-8859-1"?>
<!-- Generator: Adobe Illustrator 22.1.0, SVG Export Plug-In . SVG Version: 6.00 Build 0)  -->
<svg xmlns="http://www.w3.org/2000/svg" xmlns:xlink="http://www.w3.org/1999/xlink" version="1.1" id="Layer_3" x="0px" y="0px" viewBox="0 0 64 64" style="enable-background:new 0 0 64 64;" xml:space="preserve">
<g>
	<g>
		<rect x="57" y="12" style="fill:#999999;" width="2" height="40"/>
	</g>
	<g>
		<path style="fill:#5789D6;" d="M62,63c-17.093,0-31-13.906-31-31S44.907,1,62,1c0.552,0,1,0.447,1,1v4h-2V3.017    C45.471,3.546,33,16.344,33,32s12.471,28.454,28,28.983V58h2v4C63,62.553,62.552,63,62,63z"/>
	</g>
	<g>

			<rect x="35.172" y="29" transform="matrix(0.7071 -0.7071 0.7071 0.7071 -10.0833 35.6569)" style="fill:#656665;" width="5.657" height="2"/>
	</g>
	<g>

			<rect x="41.172" y="29" transform="matrix(0.7071 -0.7071 0.7071 0.7071 -8.3259 39.8995)" style="fill:#656665;" width="5.657" height="2"/>
	</g>
	<g>

			<rect x="37" y="31.172" transform="matrix(0.7071 -0.7071 0.7071 0.7071 -12.9117 36.8284)" style="fill:#656665;" width="2" height="5.657"/>
	</g>
	<g>

			<rect x="43" y="31.172" transform="matrix(0.7071 -0.7071 0.7071 0.7071 -11.1543 41.0711)" style="fill:#656665;" width="2" height="5.657"/>
	</g>
	<circle style="fill:#94CCE7;" cx="4" cy="60" r="2"/>
	<circle style="fill:#94CCE7;" cx="6" cy="49" r="4"/>
	<circle style="fill:#94CCE7;" cx="4" cy="19" r="2"/>
	<circle style="fill:#94CCE7;" cx="6" cy="6" r="4"/>
	<path style="fill:#CA5057;" d="M20,29.208L20,29.208c0-2.634-1.948-4.969-4.573-5.19c-1.818-0.153-3.437,0.681-4.427,2.009   c-1.074-1.442-2.888-2.3-4.894-1.949C3.683,24.503,2,26.748,2,29.208v0c0,1.776,0.76,3.467,2.087,4.647L11,40l6.913-6.145   C19.24,32.675,20,30.984,20,29.208z"/>
	<path style="fill:#CA5057;" d="M32,9.208L32,9.208c0-2.634-1.948-4.969-4.573-5.19C25.609,3.865,23.99,4.699,23,6.027   c-1.074-1.442-2.888-2.3-4.894-1.949C15.683,4.503,14,6.748,14,9.208v0c0,1.776,0.76,3.467,2.087,4.647L23,20l6.913-6.145   C31.24,12.675,32,10.984,32,9.208z"/>
	<path style="fill:#CA5057;" d="M32,50.208L32,50.208c0-2.634-1.948-4.969-4.573-5.19c-1.818-0.153-3.437,0.681-4.427,2.009   c-1.074-1.442-2.888-2.3-4.894-1.949C15.683,45.503,14,47.748,14,50.207v0c0,1.776,0.76,3.467,2.087,4.647L23,61l6.913-6.145   C31.24,53.675,32,51.984,32,50.208z"/>
	<g>
		<path style="fill:#699CE6;" d="M62,13h-6c-0.552,0-1-0.447-1-1c0-3.859,3.14-7,7-7c0.552,0,1,0.447,1,1v6    C63,12.553,62.552,13,62,13z M57.101,11H61V7.101C59.044,7.499,57.499,9.044,57.101,11z"/>
	</g>
	<g>
		<path style="fill:#699CE6;" d="M62,59c-3.86,0-7-3.141-7-7c0-0.553,0.448-1,1-1h6c0.552,0,1,0.447,1,1v6    C63,58.553,62.552,59,62,59z M57.101,53c0.398,1.956,1.943,3.501,3.899,3.899V53H57.101z"/>
	</g>
	<g>
		<rect x="13" y="31" style="fill:#999999;" width="36" height="2"/>
	</g>
	<g>
		<path style="fill:#656665;" d="M10,36v-2c1.103,0,2-0.897,2-2s-0.897-2-2-2v-2c2.206,0,4,1.794,4,4S12.206,36,10,36z"/>
	</g>
</g>
</svg>
