<?xml version="1.0" encoding="iso-8859-1"?>
<!-- Generator: Adobe Illustrator 22.1.0, SVG Export Plug-In . SVG Version: 6.00 Build 0)  -->
<svg xmlns="http://www.w3.org/2000/svg" xmlns:xlink="http://www.w3.org/1999/xlink" version="1.1" id="Layer_3" x="0px" y="0px" viewBox="0 0 64 64" style="enable-background:new 0 0 64 64;">
<g>
	<circle style="fill:#94CCE7;" cx="46" cy="22" r="2"/>
	<circle style="fill:#94CCE7;" cx="52" cy="14" r="4"/>
	<circle style="fill:#94CCE7;" cx="18" cy="22" r="2"/>
	<circle style="fill:#94CCE7;" cx="12" cy="14" r="4"/>
	<polyline style="fill:#DCB29C;" points="25,15 22,10 30,7 30,2 34,2 34,7 42,10 39,15  "/>
	<polygon style="fill:#F3C6B0;" points="25,15 38.6,15 41,11 33,8 33,3 30,3 30,7 29,7.375 29,8 22.306,10.51  "/>
	<path style="fill:#D9D7D8;" d="M35,27l2.736-5.472C38.567,19.866,39,18.032,39,16.174v0c0-2.011-1.408-3.833-3.397-4.129   C34.158,11.83,32.854,12.403,32,13.38c-0.854-0.977-2.158-1.549-3.603-1.335C26.408,12.34,25,14.163,25,16.174v0   c0,1.859,0.433,3.692,1.264,5.354L29,27"/>
	<path style="fill:#EFEDEE;" d="M36,16.174c0-1.693-1.005-3.241-2.508-3.868c-0.576,0.24-1.086,0.609-1.492,1.074   c-0.408-0.466-0.92-0.837-1.5-1.077c-0.58,0.24-1.092,0.611-1.5,1.077c-0.406-0.464-0.916-0.833-1.492-1.074   C26.005,12.933,25,14.481,25,16.174c0,1.859,0.433,3.692,1.264,5.354L29,27h3l2.736-5.472C35.567,19.865,36,18.032,36,16.174z"/>
	<path style="fill:#D9D7D8;" d="M51,62H13l2-19c0-9.389,7.611-17,17-17h0c9.389,0,17,7.611,17,17L51,62z"/>
	<path style="fill:#EFEDEE;" d="M30.5,26.076C21.815,26.836,15,34.118,15,43l-2,19h35l-2-19C46,34.118,39.185,26.836,30.5,26.076z"/>
	<path style="fill:#D9D7D8;" d="M29,56c0-6.429,3.456-12.424,9.021-15.646l9.036-5.232c-0.311-0.593-0.65-1.167-1.027-1.716   l-9.012,5.217c-1.134,0.656-2.187,1.419-3.154,2.266c-0.465-3.981-2.23-7.669-5.107-10.547l-3.105-3.106   c-0.66,0.266-1.3,0.569-1.916,0.912l3.607,3.608c2.947,2.947,4.586,6.85,4.646,11.009C28.827,46.38,27,51.075,27,56H29z"/>
	<path style="fill:#BAB8B9;" d="M38.718,18.706l-6.726,2.242l-6.688-2.117c0.185,0.811,0.463,1.597,0.814,2.356l5.581,1.766   C31.797,22.984,31.898,23,32,23c0.106,0,0.214-0.017,0.316-0.051l5.613-1.871C38.273,20.313,38.542,19.522,38.718,18.706z"/>
	<path style="fill:#D9D7D8;" d="M31.992,20.949l-6.688-2.117c0,0,0,0,0,0c0.086,0.376,0.196,0.746,0.32,1.112   c0.01,0.031,0.017,0.063,0.028,0.094c0.136,0.39,0.292,0.773,0.465,1.149c0,0,0,0.001,0.001,0.001l5.58,1.766   C31.797,22.984,31.898,23,32,23c0.106,0,0.214-0.017,0.316-0.051l2.051-0.684l0.369-0.737c0.277-0.555,0.493-1.133,0.681-1.721   L31.992,20.949z"/>
</g>
</svg>
