<?xml version="1.0" encoding="iso-8859-1"?>
<!-- Generator: Adobe Illustrator 22.1.0, SVG Export Plug-In . SVG Version: 6.00 Build 0)  -->
<svg xmlns="http://www.w3.org/2000/svg" xmlns:xlink="http://www.w3.org/1999/xlink" version="1.1" id="Layer_3" x="0px" y="0px" viewBox="0 0 64 64" style="enable-background:new 0 0 64 64;" xml:space="preserve">
<g>
	<rect x="14" y="24" style="fill:#CA5057;" width="46" height="38"/>
	<rect x="14" y="29" style="fill:#DC6068;" width="42" height="33"/>
	<rect x="4" y="46" style="fill:#BC8F6F;" width="26" height="16"/>
	<rect x="4" y="49" style="fill:#CB9E78;" width="22" height="13"/>
	<rect x="2" y="36" style="fill:#BC8F6F;" width="30" height="10"/>
	<rect x="2" y="39" style="fill:#CB9E78;" width="27" height="7"/>
	<rect x="4" y="52" style="fill:#5789D6;" width="26" height="4"/>
	<rect x="15" y="46" style="fill:#699CE6;" width="4" height="16"/>
	<rect x="13" y="36" style="fill:#5789D6;" width="8" height="10"/>
	<rect x="13" y="39" style="fill:#699CE6;" width="8" height="7"/>
	<path style="fill:#F8CF6A;" d="M21,28L21,28c-2.209,0-4,1.791-4,4v4h4c2.209,0,4-1.791,4-4v0C25,29.791,23.209,28,21,28z"/>
	<path style="fill:#F8CF6A;" d="M13,28L13,28c2.209,0,4,1.791,4,4v4h-4c-2.209,0-4-1.791-4-4v0C9,29.791,10.791,28,13,28z"/>
	<path style="fill:#FFFFFF;" d="M19.5,31L19.5,31c-1.381,0-2.5,1.119-2.5,2.5V36h2.5c1.381,0,2.5-1.119,2.5-2.5v0   C22,32.119,20.881,31,19.5,31z"/>
	<path style="fill:#FFFFFF;" d="M14.5,31L14.5,31c1.381,0,2.5,1.119,2.5,2.5V36h-2.5c-1.381,0-2.5-1.119-2.5-2.5v0   C12,32.119,13.119,31,14.5,31z"/>
	<rect x="32" y="38" style="fill:#EEBC5A;" width="28" height="6"/>
	<rect x="44" y="24" style="fill:#F8CF6A;" width="8" height="38"/>
	<rect x="12" y="14" style="fill:#CA5057;" width="50" height="10"/>
	<rect x="12" y="17" style="fill:#DC6068;" width="45" height="7"/>
	<path style="fill:#F8CF6A;" d="M47,2h-4c-3.314,0-6,2.686-6,6v6h10c3.314,0,6-2.686,6-6v0C53,4.686,50.314,2,47,2z"/>
	<path style="fill:#F8CF6A;" d="M27,2h4c3.314,0,6,2.686,6,6v6H27c-3.314,0-6-2.686-6-6v0C21,4.686,23.686,2,27,2z"/>
	<path style="fill:#FFFFFF;" d="M29,6h4c2.209,0,4,1.791,4,4v4h-8c-2.209,0-4-1.791-4-4v0C25,7.791,26.791,6,29,6z"/>
	<path style="fill:#FFFFFF;" d="M45,6h-4c-2.209,0-4,1.791-4,4v4h8c2.209,0,4-1.791,4-4v0C49,7.791,47.209,6,45,6z"/>
	<rect x="44" y="24" style="fill:#EEBC5A;" width="8" height="5"/>
	<rect x="15" y="46" style="fill:#5789D6;" width="4" height="3"/>
</g>
</svg>
