<?xml version="1.0" encoding="iso-8859-1"?>
<!-- Generator: Adobe Illustrator 22.1.0, SVG Export Plug-In . SVG Version: 6.00 Build 0)  -->
<svg xmlns="http://www.w3.org/2000/svg" xmlns:xlink="http://www.w3.org/1999/xlink" version="1.1" id="Layer_3" x="0px" y="0px" viewBox="0 0 64 64" style="enable-background:new 0 0 64 64;" xml:space="preserve">
<g>
	<path style="fill:#EEBC5A;" d="M18,38v-2c0-1.105-0.895-2-2-2h0c-1.105,0-2,0.895-2,2v3"/>
	<path style="fill:#EEBC5A;" d="M10,39v-2c0-1.105-0.895-2-2-2h0c-1.105,0-2,0.895-2,2v3"/>
	<path style="fill:#EEBC5A;" d="M34,38v-2c0-1.105,0.895-2,2-2h0c1.105,0,2,0.895,2,2v3"/>
	<path style="fill:#EEBC5A;" d="M42,39v-2c0-1.105,0.895-2,2-2h0c1.105,0,2,0.895,2,2v3"/>
	<polyline style="fill:#5789D6;" points="23.946,35.611 2,40 2,44 23.117,44  "/>
	<polyline style="fill:#5789D6;" points="28,35.6 50,40 50,44 28.327,44  "/>
	<polyline style="fill:#5789D6;" points="23,54 13,59 13,62 23,62  "/>
	<polyline style="fill:#5789D6;" points="29,54 39,59 39,62 29,62  "/>
	<path style="fill:#D9D7D8;" d="M29,62h-6l-1-31v-5c0-2.209,1.791-4,4-4h0c2.209,0,4,1.791,4,4v5L29,62z"/>
	<path style="fill:#EFEDEE;" d="M28,26c0-1.862-1.278-3.413-3-3.859c-1.722,0.446-3,1.997-3,3.859v5l1,31h4l1-31V26z"/>
	<path style="fill:#CA5057;" d="M62,9.275c0-3.855-2.997-7.193-6.852-7.273C52.536,1.947,50.247,3.33,49,5.408   c-1.247-2.078-3.536-3.461-6.148-3.406C38.997,2.082,36,5.42,36,9.275v0c0,2.385,0.948,4.673,2.634,6.359L49,26l10.366-10.366   C61.052,13.948,62,11.66,62,9.275L62,9.275z"/>
	<path style="fill:#85B6CF;" d="M13,16c-1.657,0-3-1.343-3-3s1.343-3,3-3c0-2.209,1.791-4,4-4c0.378,0,0.737,0.069,1.084,0.167   C18.482,3.804,20.524,2,23,2c2.761,0,5,2.239,5,5c0,1.132-0.39,2.164-1.025,3.003C26.984,10.002,26.992,10,27,10   c1.657,0,3,1.343,3,3s-1.343,3-3,3H13z"/>
	<path style="fill:#94CCE7;" d="M5,16c-1.657,0-3-1.343-3-3s1.343-3,3-3c0-2.209,1.791-4,4-4c0.378,0,0.737,0.069,1.084,0.167   C10.482,3.804,12.524,2,15,2c2.761,0,5,2.239,5,5c0,1.132-0.39,2.164-1.025,3.003C18.984,10.002,18.992,10,19,10   c1.657,0,3,1.343,3,3s-1.343,3-3,3H5z"/>
	<g>
		<path style="fill:#DC6068;" d="M55,13v-2c1.103,0,2-0.897,2-2s-0.897-2-2-2V5c2.206,0,4,1.794,4,4S57.206,13,55,13z"/>
	</g>
</g>
</svg>
