<?xml version="1.0" encoding="iso-8859-1"?>
<!-- Generator: Adobe Illustrator 21.0.0, SVG Export Plug-In . SVG Version: 6.00 Build 0)  -->
<svg xmlns="http://www.w3.org/2000/svg" xmlns:xlink="http://www.w3.org/1999/xlink" version="1.1" id="Capa_1" x="0px" y="0px" viewBox="0 0 512 512" style="enable-background:new 0 0 512 512;">
<g>
	<path style="fill:#85CEFF;" d="M425.106,139.447H85.854V10c0-5.523,4.477-10,10-10h319.252c5.523,0,10,4.477,10,10V139.447z"/>
	<path style="fill:#63C2F7;" d="M407.845,0v111.882c0,5.691-4.614,10.305-10.305,10.305H85.854v17.261h339.252V10.305   C425.106,4.614,420.492,0,414.801,0H407.845z"/>
	<path style="fill:#D8D8D8;" d="M435.512,512H75.447V149.447c0-5.523,4.477-10,10-10h340.065c5.523,0,10,4.477,10,10V512z"/>
	<path style="fill:#BABABA;" d="M411.577,139.447v335.089c0,5.747-4.659,10.406-10.406,10.406H75.447V512h360.065V149.752   c0-5.691-4.614-10.305-10.305-10.305H411.577z"/>
	<path style="fill:#D8D8D8;" d="M480.667,512h-45.154V200.846h45.154c5.523,0,10,4.477,10,10V502   C490.667,507.523,486.19,512,480.667,512z"/>
	<path style="fill:#BABABA;" d="M463.61,200.846v273.691c0,5.747-4.659,10.406-10.406,10.406h-17.691V512h44.85   c5.691,0,10.305-4.614,10.305-10.305V211.15c0-5.691-4.614-10.305-10.305-10.305H463.61z"/>
	<path style="fill:#D8D8D8;" d="M31.333,512h44.114V200.846H31.333c-5.523,0-10,4.477-10,10V502   C21.333,507.523,25.81,512,31.333,512z"/>
	<path style="fill:#BABABA;" d="M52.553,200.846v273.691c0,5.747-4.659,10.406-10.407,10.406H21.333v16.752   c0,5.691,4.614,10.305,10.305,10.305h43.809V200.846H52.553z"/>
	<rect x="203.447" y="366.309" style="fill:#85CEFF;" width="104.065" height="145.691"/>
	<path style="fill:#63C2F7;" d="M286.699,366.309v108.228c0,5.747-4.659,10.406-10.406,10.406h-72.846V512h83.252h20.813v-27.057   V366.309H286.699z"/>
	<rect x="109.789" y="178.992" style="fill:#85CEFF;" width="41.626" height="41.626"/>
	<rect x="193.041" y="178.992" style="fill:#85CEFF;" width="41.626" height="41.626"/>
	<rect x="276.293" y="178.992" style="fill:#85CEFF;" width="41.626" height="41.626"/>
	<rect x="359.545" y="178.992" style="fill:#85CEFF;" width="41.626" height="41.626"/>
	<rect x="109.789" y="256" style="fill:#85CEFF;" width="41.626" height="41.626"/>
	<rect x="193.041" y="256" style="fill:#85CEFF;" width="41.626" height="41.626"/>
	<rect x="276.293" y="256" style="fill:#85CEFF;" width="41.626" height="41.626"/>
	<rect x="359.545" y="256" style="fill:#85CEFF;" width="41.626" height="41.626"/>
	<rect x="109.789" y="333.008" style="fill:#85CEFF;" width="41.626" height="41.626"/>
	<rect x="359.545" y="333.008" style="fill:#85CEFF;" width="41.626" height="41.626"/>
	<rect x="109.789" y="410.016" style="fill:#85CEFF;" width="41.626" height="41.626"/>
	<rect x="359.545" y="410.016" style="fill:#85CEFF;" width="41.626" height="41.626"/>
	<rect x="435.512" y="256" style="fill:#85CEFF;" width="55.154" height="41.626"/>
	<rect x="463.61" y="256" style="fill:#63C2F7;" width="27.057" height="41.626"/>
	<rect x="435.512" y="333.008" style="fill:#85CEFF;" width="55.154" height="41.626"/>
	<rect x="463.61" y="333.008" style="fill:#63C2F7;" width="27.057" height="41.626"/>
	<rect x="435.512" y="410.016" style="fill:#85CEFF;" width="55.154" height="41.626"/>
	<rect x="463.61" y="410.016" style="fill:#63C2F7;" width="27.057" height="41.626"/>
	
		<rect x="21.333" y="256" transform="matrix(-1 6.282473e-11 -6.282473e-11 -1 96.7805 553.626)" style="fill:#85CEFF;" width="54.114" height="41.626"/>
	<rect x="52.553" y="256" style="fill:#63C2F7;" width="22.894" height="41.626"/>
	
		<rect x="21.333" y="333.008" transform="matrix(-1 6.299260e-11 -6.299260e-11 -1 96.7805 707.6423)" style="fill:#85CEFF;" width="54.114" height="41.626"/>
	<rect x="52.553" y="333.008" style="fill:#63C2F7;" width="22.894" height="41.626"/>
	
		<rect x="21.333" y="410.016" transform="matrix(-1 6.299260e-11 -6.299260e-11 -1 96.7805 861.6585)" style="fill:#85CEFF;" width="54.114" height="41.626"/>
	<rect x="52.553" y="410.016" style="fill:#63C2F7;" width="22.894" height="41.626"/>
	<g>
		<path style="fill:#3D3D3D;" d="M169.626,57.756v23.935c0,16.067,13.071,29.138,29.138,29.138    c16.067,0,29.138-13.071,29.138-29.138V57.756c0-16.067-13.071-29.138-29.138-29.138    C182.697,28.618,169.626,41.689,169.626,57.756z M212.293,57.756v23.935c0,7.459-6.069,13.528-13.528,13.528    c-7.46,0-13.528-6.069-13.528-13.528V57.756c0-7.459,6.069-13.528,13.528-13.528C206.224,44.228,212.293,50.297,212.293,57.756z"/>
		<path style="fill:#3D3D3D;" d="M344.976,44.228c4.311,0,7.805-3.494,7.805-7.805c0-4.311-3.494-7.805-7.805-7.805h-42.667    c-4.311,0-7.805,3.494-7.805,7.805v66.602c0,4.311,3.494,7.805,7.805,7.805h42.667c4.311,0,7.805-3.494,7.805-7.805    c0-4.311-3.494-7.805-7.805-7.805h-34.862V77.528h23.415c4.311,0,7.805-3.494,7.805-7.805c0-4.311-3.494-7.805-7.805-7.805    h-23.415V44.228H344.976z"/>
		<path style="fill:#3D3D3D;" d="M156.618,110.829c4.311,0,7.805-3.494,7.805-7.805V36.423c0-4.311-3.494-7.805-7.805-7.805    c-4.31,0-7.805,3.494-7.805,7.805v25.496h-27.057V36.423c0-4.311-3.494-7.805-7.805-7.805c-4.311,0-7.805,3.494-7.805,7.805    v66.602c0,4.311,3.494,7.805,7.805,7.805c4.31,0,7.805-3.494,7.805-7.805V77.528h27.057v25.496    C148.813,107.335,152.307,110.829,156.618,110.829z"/>
		<path style="fill:#3D3D3D;" d="M260.163,110.829c4.311,0,7.805-3.494,7.805-7.805V44.228h13.529c4.311,0,7.805-3.494,7.805-7.805    c0-4.311-3.494-7.805-7.805-7.805h-42.667c-4.31,0-7.805,3.494-7.805,7.805c0,4.311,3.494,7.805,7.805,7.805h13.528v58.797    C252.358,107.335,255.852,110.829,260.163,110.829z"/>
		<path style="fill:#3D3D3D;" d="M364.748,28.618c-4.311,0-7.805,3.494-7.805,7.805v66.602c0,4.311,3.494,7.805,7.805,7.805h32.26    c4.311,0,7.805-3.494,7.805-7.805c0-4.311-3.494-7.805-7.805-7.805h-24.455V36.423C372.553,32.112,369.059,28.618,364.748,28.618z    "/>
	</g>
</g>















</svg>
