<?xml version="1.0" encoding="iso-8859-1"?>
<!-- Generator: Adobe Illustrator 22.1.0, SVG Export Plug-In . SVG Version: 6.00 Build 0)  -->
<svg xmlns="http://www.w3.org/2000/svg" xmlns:xlink="http://www.w3.org/1999/xlink" version="1.1" id="Layer_3" x="0px" y="0px" viewBox="0 0 64 64" style="enable-background:new 0 0 64 64;" xml:space="preserve">
<g>
	<polyline style="fill:#599072;" points="32,2 62,32 62,62 2,62 2,32 32,2  "/>
	<polyline style="fill:#70B48F;" points="32,2 62,32 32,54 2,32 32,2  "/>
	<polygon style="fill:#70B48F;" points="62,62 44.107,44.107 19.893,44.107 2,62  "/>
	<polygon style="fill:#D9D7D8;" points="50,40.8 50,13 14,13 14,40.8 32,54  "/>
	<path style="fill:#CA5057;" d="M41,22.208L41,22.208c0-2.634-1.948-4.969-4.573-5.19c-1.818-0.153-3.437,0.681-4.427,2.009   c-1.074-1.442-2.888-2.3-4.894-1.949C24.683,17.503,23,19.748,23,22.208v0c0,1.776,0.76,3.467,2.087,4.647L32,33l6.913-6.145   C40.24,25.675,41,23.984,41,22.208z"/>
	<g>
		<rect x="17" y="36" style="fill:#5B6673;" width="30" height="2"/>
	</g>
	<g>
		<rect x="21" y="40" style="fill:#5B6673;" width="22" height="2"/>
	</g>
</g>
</svg>
