<svg viewBox="0 0 480 480.00573" xmlns="http://www.w3.org/2000/svg" xmlns:xlink="http://www.w3.org/1999/xlink" version="1.1" style="enable-background:new 0 0 64 64;" xml:space="preserve"><path d="m8.003906 104.003906h464v368h-464zm0 0" fill="#b09dda"/><path d="m40.003906 72.003906h400v368h-400zm0 0" fill="#f6d7c9"/><path d="m240.003906 46.40625c0-22.09375-17.910156-40-40-40-22.09375 0-40 17.90625-40 40 0 21.207031 57.910156 89.597656 80 89.597656 22.085938 0 80-68.390625 80-89.597656 0-22.09375-17.910156-40-40-40-22.09375 0-40 17.90625-40 40" fill="#eb3936"/><path d="m472.003906 96.003906h-24v-24c0-4.417968-3.582031-8-8-8h-117.527344c3.070313-5.40625 4.957032-11.40625 5.527344-17.597656-.480468-26.054688-21.949218-46.804688-48-46.40234375-15.945312-.07031245-30.902344 7.71093775-40 20.80078175-9.097656-13.089844-24.058594-20.8710942-40-20.80078175-26.054687-.40234425-47.523437 20.34765575-48 46.40234375.570313 6.191406 2.453125 12.191406 5.527344 17.597656h-117.527344c-4.417968 0-8 3.582032-8 8v24h-24c-4.417968 0-7.99999975 3.582032-7.99999975 8v368c0 4.421875 3.58203175 8 7.99999975 8h464c4.417969 0 8-3.578125 8-8v-368c0-4.417968-3.582031-8-8-8zm-40-16v352h-184v-289.832031c19.261719-7.199219 47.734375-36.414063 65.03125-62.167969zm-232-64c17.21875-.410156 31.527344 13.183594 32 30.402344 0 4.417969 3.582032 8 8 8 4.417969 0 8-3.582031 8-8 .851563-17.050781 14.925782-30.441406 32-30.441406 17.070313 0 31.144532 13.390625 32 30.441406 0 18.304688-55.847656 81.597656-72 81.597656s-72-63.292968-72-81.597656c.46875-17.21875 14.777344-30.8125 32-30.402344zm-152 64h118.96875c17.292969 25.753906 45.765625 54.976563 65.03125 62.167969v289.832031h-184zm416 384h-448v-352h16v328c0 4.421875 3.582032 8 8 8h400c4.417969 0 8-3.578125 8-8v-328h16zm0 0"/><path d="m88.003906 160.003906h32c4.417969 0 8-3.578125 8-8 0-4.417968-3.582031-8-8-8h-32c-4.417968 0-8 3.582032-8 8 0 4.421875 3.582032 8 8 8zm0 0"/><path d="m192.003906 176.003906h-104c-4.417968 0-8 3.582032-8 8 0 4.421875 3.582032 8 8 8h104c4.417969 0 8-3.578125 8-8 0-4.417968-3.582031-8-8-8zm0 0"/><path d="m192.003906 208.003906h-104c-4.417968 0-8 3.582032-8 8 0 4.421875 3.582032 8 8 8h104c4.417969 0 8-3.578125 8-8 0-4.417968-3.582031-8-8-8zm0 0"/><path d="m192.003906 240.003906h-104c-4.417968 0-8 3.582032-8 8 0 4.421875 3.582032 8 8 8h104c4.417969 0 8-3.578125 8-8 0-4.417968-3.582031-8-8-8zm0 0"/><path d="m192.003906 272.003906h-104c-4.417968 0-8 3.582032-8 8 0 4.421875 3.582032 8 8 8h104c4.417969 0 8-3.578125 8-8 0-4.417968-3.582031-8-8-8zm0 0"/><path d="m192.003906 304.003906h-104c-4.417968 0-8 3.582032-8 8 0 4.421875 3.582032 8 8 8h104c4.417969 0 8-3.578125 8-8 0-4.417968-3.582031-8-8-8zm0 0"/><path d="m192.003906 336.003906h-104c-4.417968 0-8 3.582032-8 8 0 4.421875 3.582032 8 8 8h104c4.417969 0 8-3.578125 8-8 0-4.417968-3.582031-8-8-8zm0 0"/><path d="m152.003906 368.003906h-64c-4.417968 0-8 3.582032-8 8 0 4.421875 3.582032 8 8 8h64c4.417969 0 8-3.578125 8-8 0-4.417968-3.582031-8-8-8zm0 0"/><path d="m288.003906 160.003906h32c4.417969 0 8-3.578125 8-8 0-4.417968-3.582031-8-8-8h-32c-4.417968 0-8 3.582032-8 8 0 4.421875 3.582032 8 8 8zm0 0"/><path d="m280.003906 184.003906c0 4.421875 3.582032 8 8 8h104c4.417969 0 8-3.578125 8-8 0-4.417968-3.582031-8-8-8h-104c-4.417968 0-8 3.582032-8 8zm0 0"/><path d="m392.003906 208.003906h-104c-4.417968 0-8 3.582032-8 8 0 4.421875 3.582032 8 8 8h104c4.417969 0 8-3.578125 8-8 0-4.417968-3.582031-8-8-8zm0 0"/><path d="m392.003906 240.003906h-104c-4.417968 0-8 3.582032-8 8 0 4.421875 3.582032 8 8 8h104c4.417969 0 8-3.578125 8-8 0-4.417968-3.582031-8-8-8zm0 0"/><path d="m392.003906 272.003906h-104c-4.417968 0-8 3.582032-8 8 0 4.421875 3.582032 8 8 8h104c4.417969 0 8-3.578125 8-8 0-4.417968-3.582031-8-8-8zm0 0"/><path d="m392.003906 304.003906h-104c-4.417968 0-8 3.582032-8 8 0 4.421875 3.582032 8 8 8h104c4.417969 0 8-3.578125 8-8 0-4.417968-3.582031-8-8-8zm0 0"/><path d="m392.003906 336.003906h-104c-4.417968 0-8 3.582032-8 8 0 4.421875 3.582032 8 8 8h104c4.417969 0 8-3.578125 8-8 0-4.417968-3.582031-8-8-8zm0 0"/><path d="m352.003906 368.003906h-64c-4.417968 0-8 3.582032-8 8 0 4.421875 3.582032 8 8 8h64c4.417969 0 8-3.578125 8-8 0-4.417968-3.582031-8-8-8zm0 0"/></svg>