<?xml version="1.0" encoding="iso-8859-1"?>
<!-- Generator: Adobe Illustrator 22.1.0, SVG Export Plug-In . SVG Version: 6.00 Build 0)  -->
<svg xmlns="http://www.w3.org/2000/svg" xmlns:xlink="http://www.w3.org/1999/xlink" version="1.1" id="Layer_3" x="0px" y="0px" viewBox="0 0 64 64" style="enable-background:new 0 0 64 64;">
<g>
	<rect x="12" y="56" style="fill:#7E4E4D;" width="40" height="6"/>
	<rect x="16" y="52" style="fill:#8D5655;" width="32" height="4"/>
	<polygon style="fill:#5B6673;" points="53,13 62,52 55,53 48.043,27.161  "/>
	<polygon style="fill:#5B6673;" points="11,13 2,52 9,53 15.957,27.161  "/>
	<polyline style="fill:#575C61;" points="24,10 11,13 18,33 18,52 46,52 46,33 53,13 40,10  "/>
	<path style="fill:#D9D7D8;" d="M46,52l-6.433-7.148C37.914,43.016,37,40.633,37,38.163V15H27v23.163c0,2.47-0.914,4.853-2.567,6.69   L18,52"/>
	<path style="fill:#EFEDEE;" d="M24.433,44.852L18,52h24.1l-5.533-6.148C34.914,44.016,34,41.633,34,39.163V15h-7v23.163   C27,40.633,26.086,43.016,24.433,44.852z"/>
	<polyline style="fill:#999999;" points="37.5,12.5 43,7 38,2 32,8 32,14  "/>
	<polyline style="fill:#BAB8B9;" points="26.5,12.5 21,7 26,2 32,8 32,14  "/>
	<polyline style="fill:#656665;" points="32,13 39,10 39,18 32,16  "/>
	<polyline style="fill:#999999;" points="32,16 25,18 25,10 32,13  "/>
	<polygon style="fill:#575C61;" points="9.811,49.986 10.331,48.055 3.37,46.066 2.919,48.017  "/>
	<polygon style="fill:#575C61;" points="53.669,48.055 54.189,49.986 61.081,48.017 60.63,46.066  "/>
	<g>
		<rect x="31" y="19" style="fill:#D9D7D8;" width="2" height="2"/>
	</g>
	<g>
		<rect x="31" y="23" style="fill:#D9D7D8;" width="2" height="4"/>
	</g>
	<g>
		<rect x="31" y="29" style="fill:#D9D7D8;" width="2" height="2"/>
	</g>
	<g>
		<rect x="31" y="33" style="fill:#D9D7D8;" width="2" height="4"/>
	</g>
	<g>
		<rect x="31" y="39" style="fill:#D9D7D8;" width="2" height="2"/>
	</g>
</g>
</svg>
