<?xml version="1.0" encoding="iso-8859-1"?>
<!-- Generator: Adobe Illustrator 22.1.0, SVG Export Plug-In . SVG Version: 6.00 Build 0)  -->
<svg xmlns="http://www.w3.org/2000/svg" xmlns:xlink="http://www.w3.org/1999/xlink" version="1.1" id="Layer_3" x="0px" y="0px" viewBox="0 0 64 64" style="enable-background:new 0 0 64 64;" xml:space="preserve">
<g>
	<g>
		
			<rect x="28.172" y="38.293" transform="matrix(0.7071 -0.7071 0.7071 0.7071 -18.7046 33.429)" style="fill:#5B6673;" width="5.657" height="2"/>
	</g>
	<g>
		
			<rect x="32.5" y="38.257" transform="matrix(0.7071 -0.7071 0.7071 0.7071 -19.7402 35.929)" style="fill:#5B6673;" width="2" height="7.071"/>
	</g>
	<g>
		<path style="fill:#5B6673;" d="M18.8,34.6l-1.6-1.2l1.2-1.6c1.031-1.375,1.6-3.081,1.6-4.8h2c0,2.149-0.71,4.28-2,6L18.8,34.6z"/>
	</g>
	<g>
		<path style="fill:#5B6673;" d="M11.052,41.316l-1.22-3.66C7.953,32.021,7,26.151,7,20.209V15h2v5.209    c0,5.727,0.918,11.384,2.729,16.814l1.22,3.661L11.052,41.316z"/>
	</g>
	<path style="fill:#999999;" d="M15,43v-9c0-1.105,0.895-2,2-2h0c1.105,0,2,0.895,2,2v9"/>
	<polyline style="fill:#EEBC5A;" points="53,56 62,56 62,44 45,42 38,30 33,30 40,43 18,43 15,40 2,41 2,56 8,56  "/>
	<polygon style="fill:#F8CF6A;" points="42,42 35,30 33,30 40,43 37,43 18,43 15,43 12.214,40.214 2,41 2,56 5,56 8,56 50,56 53,56    59,56 59,44  "/>
	<circle style="fill:#656665;" cx="14" cy="56" r="6"/>
	<circle style="fill:#656665;" cx="47" cy="56" r="6"/>
	<circle style="fill:#999999;" cx="14" cy="56" r="2"/>
	<circle style="fill:#999999;" cx="47" cy="56" r="2"/>
	<polygon style="fill:#CA5057;" points="2,41 2,50 6,50 6,41 6,40.692  "/>
	<polygon style="fill:#DC6068;" points="2,47 6,47 6,41 6,40.692 2,41  "/>
	<polygon style="fill:#DBAF89;" points="58,43.529 58,44 58,52 62,52 62,44  "/>
	<circle style="fill:#94CCE7;" cx="33" cy="17" r="2"/>
	<circle style="fill:#94CCE7;" cx="39" cy="9" r="4"/>
	<ellipse style="fill:#5789D6;" cx="8" cy="9" rx="6" ry="7"/>
	<ellipse style="fill:#699CE6;" cx="6.5" cy="9" rx="4.5" ry="6.771"/>
	<g>
		<rect x="20" y="46" style="fill:#EEBC5A;" width="6" height="2"/>
	</g>
	<ellipse style="fill:#599072;" cx="21" cy="21" rx="6" ry="7"/>
	<ellipse style="fill:#70B48F;" cx="19.5" cy="21" rx="4.5" ry="6.771"/>
</g>
</svg>
