<?xml version="1.0" encoding="iso-8859-1"?>
<!-- Generator: Adobe Illustrator 22.1.0, SVG Export Plug-In . SVG Version: 6.00 Build 0)  -->
<svg xmlns="http://www.w3.org/2000/svg" xmlns:xlink="http://www.w3.org/1999/xlink" version="1.1" id="Layer_3" x="0px" y="0px" viewBox="0 0 64 64" style="enable-background:new 0 0 64 64;" xml:space="preserve">
<g>
	<polyline style="fill:#94CCE7;" points="45.502,12.498 52,6 48,2 38,2 34,6 40.741,12.741  "/>
	<path style="fill:#BAB8B9;" d="M24.842,24.389C27.236,16.634,34.46,11,43,11c10.493,0,19,8.507,19,19s-8.507,19-19,19   s-19-8.507-19-19c0-0.568,0.025-1.13,0.074-1.685l0,0c1.39,0.289,2.709,0.771,3.929,1.416l0,0C28.001,29.821,28,29.91,28,30   c0,8.284,6.716,15,15,15s15-6.716,15-15s-6.716-15-15-15c-6.755,0-12.467,4.465-14.346,10.605l0,0   C27.444,25.072,26.169,24.661,24.842,24.389z"/>
	<path style="fill:#85B6CF;" d="M51,5h-4.382l-1.5-3h-2h-0.236h-2l-1.5,3H35l-1,1l1,1h16l1-1L51,5z M43,2.236L44.382,5h-2.764   L43,2.236z"/>
	<polyline style="fill:#94CCE7;" points="23.66,25.34 30,19 26,15 16,15 12,19 18.34,25.34  "/>
	<path style="fill:#85B6CF;" d="M24.618,18l-1.5-3h-1.999h-0.237h-1.999l-1.5,3H13l-1,1l1,1h16l1-1l-1-1H24.618z M21,15.237   L22.382,18h-2.763L21,15.237z"/>
	<path style="fill:#999999;" d="M39.158,48.611C36.764,56.366,29.54,62,21,62C10.507,62,2,53.493,2,43s8.507-19,19-19   s19,8.507,19,19c0,0.568-0.025,1.13-0.074,1.685h0c-1.39-0.289-2.709-0.771-3.929-1.416l0,0C35.999,43.179,36,43.09,36,43   c0-8.284-6.716-15-15-15S6,34.716,6,43s6.716,15,15,15c6.755,0,12.467-4.465,14.346-10.605l0,0   C36.556,47.928,37.831,48.339,39.158,48.611z"/>
</g>
</svg>
