<?xml version="1.0" encoding="iso-8859-1"?>
<!-- Generator: Adobe Illustrator 22.1.0, SVG Export Plug-In . SVG Version: 6.00 Build 0)  -->
<svg xmlns="http://www.w3.org/2000/svg" xmlns:xlink="http://www.w3.org/1999/xlink" version="1.1" id="Layer_3" x="0px" y="0px" viewBox="0 0 64 64" style="enable-background:new 0 0 64 64;" xml:space="preserve">
<g>
	<path style="fill:#656665;" d="M39,32H25v0c0-2.209,1.791-4,4-4h6C37.209,28,39,29.791,39,32L39,32z"/>
	<path style="fill:#D9D7D8;" d="M32,20L32,20c-4.971,0-9-4.029-9-9V2h18v9C41,15.971,36.971,20,32,20z"/>
	<path style="fill:#EFEDEE;" d="M30.5,19.865C34.755,19.15,38,15.458,38,11V2H23v9C23,15.458,26.245,19.15,30.5,19.865z"/>
	<path style="fill:#CA5057;" d="M32,20L32,20c-4.971,0-9-4.029-9-9V9h18v2C41,15.971,36.971,20,32,20z"/>
	<path style="fill:#DC6068;" d="M30.5,19.865C34.755,19.15,38,15.458,38,11V9H23v2C23,15.458,26.245,19.15,30.5,19.865z"/>
	<path style="fill:#656665;" d="M27,62H13v0c0-2.209,1.791-4,4-4h6C25.209,58,27,59.791,27,62L27,62z"/>
	<path style="fill:#D9D7D8;" d="M20,50L20,50c-4.971,0-9-4.029-9-9v-9h18v9C29,45.971,24.971,50,20,50z"/>
	<path style="fill:#EFEDEE;" d="M18.5,49.865C22.755,49.15,26,45.458,26,41v-9H11v9C11,45.458,14.245,49.15,18.5,49.865z"/>
	<path style="fill:#CA5057;" d="M20,50L20,50c-4.971,0-9-4.029-9-9v-2h18v2C29,45.971,24.971,50,20,50z"/>
	<path style="fill:#DC6068;" d="M18.5,49.865C22.755,49.15,26,45.458,26,41v-2H11v2C11,45.458,14.245,49.15,18.5,49.865z"/>
	<path style="fill:#656665;" d="M51,62H37v0c0-2.209,1.791-4,4-4h6C49.209,58,51,59.791,51,62L51,62z"/>
	<path style="fill:#D9D7D8;" d="M44,50L44,50c-4.971,0-9-4.029-9-9v-9h18v9C53,45.971,48.971,50,44,50z"/>
	<path style="fill:#EFEDEE;" d="M42.5,49.865C46.755,49.15,50,45.458,50,41v-9H35v9C35,45.458,38.245,49.15,42.5,49.865z"/>
	<path style="fill:#CA5057;" d="M44,50L44,50c-4.971,0-9-4.029-9-9v-2h18v2C53,45.971,48.971,50,44,50z"/>
	<path style="fill:#DC6068;" d="M42.5,49.865C46.755,49.15,50,45.458,50,41v-2H35v2C35,45.458,38.245,49.15,42.5,49.865z"/>
	<polygon style="fill:#EEBC5A;" points="45,16 52,8 55,13  "/>
	<polygon style="fill:#EEBC5A;" points="45,20 52,28 55,23  "/>
	<polygon style="fill:#EEBC5A;" points="19,16 12,8 9,13  "/>
	<polygon style="fill:#EEBC5A;" points="19,20 12,28 9,23  "/>
	<g>
		<rect x="19" y="50" style="fill:#999999;" width="2" height="8"/>
	</g>
	<g>
		<rect x="43" y="50" style="fill:#999999;" width="2" height="8"/>
	</g>
	<g>
		<rect x="31" y="20" style="fill:#999999;" width="2" height="8"/>
	</g>
</g>
</svg>
